<?xml version="1.0" encoding="utf-8"?>
<!-- Generator: Adobe Illustrator 16.0.0, SVG Export Plug-In . SVG Version: 6.00 Build 0)  -->
<!DOCTYPE svg PUBLIC "-//W3C//DTD SVG 1.0//EN" "http://www.w3.org/TR/2001/REC-SVG-20010904/DTD/svg10.dtd">
<svg version="1.0" id="Layer_1" xmlns="http://www.w3.org/2000/svg" xmlns:xlink="http://www.w3.org/1999/xlink" x="0px" y="0px"
	 width="100px" height="100px" viewBox="0 0 100 100" enable-background="new 0 0 100 100" xml:space="preserve">
<path d="M83.279,16.723C71.023,4.467,46.196,9.435,27.817,27.817C9.434,46.196,4.467,71.023,16.723,83.279
	c12.252,12.252,37.083,7.288,55.464-11.091C90.566,53.807,95.531,28.975,83.279,16.723z M17.319,59.151
	c1.839-9.196,7.239-18.653,15.211-26.618c9.932-9.936,22.226-15.866,32.888-15.866c3.674,0,8.779,0.794,12.672,4.355
	c-7.354,12.669-18.463,22.175-31.357,27.513c-11.596,4.802-21.738,12.992-29.023,23.799C16.485,68.611,16.323,64.129,17.319,59.151z
	 M67.475,67.475c-9.932,9.932-22.226,15.859-32.89,15.859c-3.793,0-9.121-0.823-13.054-4.688
	c6.413-10.706,16.003-19.082,27.754-23.948c13.711-5.68,24.991-15.27,32.838-27.484C85.975,37.937,80.322,54.623,67.475,67.475z"/>
</svg>
