<?xml version="1.0" encoding="utf-8"?>
<!-- Generator: Adobe Illustrator 16.0.0, SVG Export Plug-In . SVG Version: 6.00 Build 0)  -->
<!DOCTYPE svg PUBLIC "-//W3C//DTD SVG 1.0//EN" "http://www.w3.org/TR/2001/REC-SVG-20010904/DTD/svg10.dtd">
<svg version="1.0" id="Layer_1" xmlns="http://www.w3.org/2000/svg" xmlns:xlink="http://www.w3.org/1999/xlink" x="0px" y="0px"
	 width="100px" height="100px" viewBox="0 0 100 100" enable-background="new 0 0 100 100" xml:space="preserve">
<path d="M63.333,63.335v6.666h-6.666v6.666h6.666v6.668c0,3.678,2.985,6.666,6.667,6.666h13.327c3.685,0,6.666-2.982,6.666-6.666
	l0.007-20H63.333z M83.33,83.335H70V70.001h13.333L83.33,83.335z"/>
<path d="M60,29.999h-3.337l0.004-0.003L40,18.889v-8.89h-6.667v8.88L16.667,29.996v0.003H10v6.667h7.878l5.455,30.001L20,90.001
	h33.333L50,66.667l5.456-30.001H60c1.843,0,3.333,1.491,3.333,3.333v16.668H70V39.999C70,34.479,65.524,29.999,60,29.999z
	 M36.66,24.674l7.988,5.325h-15.97L36.66,24.674z M33.333,36.666v26.669h-3.828l-4.85-26.669H33.333z M27.688,83.335l1.901-13.334
	h14.153l1.904,13.334H27.688z M43.831,63.335H40V36.666h8.679L43.831,63.335z"/>
</svg>
