<?xml version="1.0" encoding="utf-8"?>
<!-- Generator: Adobe Illustrator 16.0.0, SVG Export Plug-In . SVG Version: 6.00 Build 0)  -->
<!DOCTYPE svg PUBLIC "-//W3C//DTD SVG 1.0//EN" "http://www.w3.org/TR/2001/REC-SVG-20010904/DTD/svg10.dtd">
<svg version="1.0" id="Layer_1" xmlns="http://www.w3.org/2000/svg" xmlns:xlink="http://www.w3.org/1999/xlink" x="0px" y="0px"
	 width="100px" height="100px" viewBox="0 0 100 100" enable-background="new 0 0 100 100" xml:space="preserve">
<path d="M73.333,23.333l-1.715-6.865C70.729,12.91,66.999,10,63.333,10H36.667c-3.666,0-7.396,2.91-8.281,6.468l-1.719,6.865H20V30
	h6.667L30,90h40l3.333-60H80v-6.667H73.333z M34.851,18.086c0.146-0.586,1.217-1.419,1.816-1.419h26.666
	c0.603,0,1.67,0.833,1.816,1.419l1.313,5.247H33.538L34.851,18.086z M63.694,83.333H36.309L33.347,30h13.32v15.999l-5,4.001v16.667
	h16.666V50l-5-4.001V30h13.324L63.694,83.333z"/>
</svg>
