<?xml version="1.0" encoding="utf-8"?>
<!-- Generator: Adobe Illustrator 16.0.0, SVG Export Plug-In . SVG Version: 6.00 Build 0)  -->
<!DOCTYPE svg PUBLIC "-//W3C//DTD SVG 1.0//EN" "http://www.w3.org/TR/2001/REC-SVG-20010904/DTD/svg10.dtd">
<svg version="1.0" id="Layer_1" xmlns="http://www.w3.org/2000/svg" xmlns:xlink="http://www.w3.org/1999/xlink" x="0px" y="0px"
	 width="100px" height="100px" viewBox="0 0 100 100" enable-background="new 0 0 100 100" xml:space="preserve">
<path d="M72.165,63.333H80c5.521,0,10-4.476,10-10c0-5.521-4.479-10-10-10H16.666c0,12.07,4.606,24.135,13.806,33.334H10v6.666
	h6.666l1.843,3.686C19.329,88.659,21.501,90,23.333,90h53.334c1.832,0,4.004-1.341,4.824-2.981l1.842-3.686H90v-6.666H62.858
	C66.696,72.829,69.831,68.304,72.165,63.333z M80,50c1.839,0,3.333,1.497,3.333,3.333c0,1.84-1.494,3.334-3.333,3.334h-5.276
	c0.635-2.162,1.094-4.392,1.419-6.667H80z M39.899,76.667l-4.714-4.714C29.138,65.905,25.241,58.278,23.874,50h45.582
	c-1.363,8.274-5.264,15.901-11.312,21.953l-4.714,4.714H39.899z"/>
<path d="M56.67,10c-2.764,0-5.264,1.12-7.073,2.93l-2.93,2.93l-2.93-2.93c-1.811-1.81-4.311-2.93-7.07-2.93c-5.521,0-10,4.476-10,10
	c0,2.761,1.119,5.264,2.93,7.073l14.713,15.29c1.296,1.296,3.418,1.296,4.717,0l14.711-15.29c1.81-1.813,2.93-4.313,2.93-7.073
	C66.667,14.479,62.194,10,56.67,10z M59.021,22.363L46.667,35.202l-12.27-12.751c-0.452-0.456-1.064-1.247-1.064-2.451
	c0-1.836,1.494-3.333,3.334-3.333c1.197,0,1.992,0.611,2.356,0.979l7.644,7.64l7.643-7.643c0.361-0.365,1.156-0.977,2.354-0.977
	C58.503,16.667,60,18.164,60,20C60,21.201,59.385,21.999,59.021,22.363z"/>
</svg>
