<?xml version="1.0" encoding="utf-8"?>
<!-- Generator: Adobe Illustrator 16.0.0, SVG Export Plug-In . SVG Version: 6.00 Build 0)  -->
<!DOCTYPE svg PUBLIC "-//W3C//DTD SVG 1.0//EN" "http://www.w3.org/TR/2001/REC-SVG-20010904/DTD/svg10.dtd">
<svg version="1.0" id="Layer_1" xmlns="http://www.w3.org/2000/svg" xmlns:xlink="http://www.w3.org/1999/xlink" x="0px" y="0px"
	 width="100px" height="100px" viewBox="0 0 100 100" enable-background="new 0 0 100 100" xml:space="preserve">
<path d="M83.333,23.333l-1.715-6.865C80.729,12.91,76.999,10,73.333,10H46.667c-3.666,0-7.396,2.91-8.281,6.468l-1.719,6.865H30V30
	h6.667l1.113,20H16.667C12.985,50,10,52.985,10,56.667V70c0,3.685,2.985,6.667,6.667,6.667h7.828
	c2.387,6.741,8.275,11.81,15.488,13.03L40,90h40l3.333-60H90v-6.667H83.333z M23.333,70h-6.666V56.667h6.666V70z M44.851,18.086
	c0.146-0.586,1.217-1.419,1.816-1.419h26.666c0.603,0,1.67,0.833,1.816,1.419l1.313,5.247H43.538L44.851,18.086z M56.667,70
	c0,7.354-5.983,13.333-13.334,13.333C35.983,83.333,30,77.354,30,70V56.667h26.667V70z M73.694,83.333H58.21
	c3.177-3.541,5.123-8.203,5.123-13.333V50H44.456l-1.109-20h33.311L73.694,83.333z"/>
</svg>
