<?xml version="1.0" encoding="utf-8"?>
<!-- Generator: Adobe Illustrator 16.0.0, SVG Export Plug-In . SVG Version: 6.00 Build 0)  -->
<!DOCTYPE svg PUBLIC "-//W3C//DTD SVG 1.0//EN" "http://www.w3.org/TR/2001/REC-SVG-20010904/DTD/svg10.dtd">
<svg version="1.0" id="Layer_1" xmlns="http://www.w3.org/2000/svg" xmlns:xlink="http://www.w3.org/1999/xlink" x="0px" y="0px"
	 width="100px" height="100px" viewBox="0 0 100 100" enable-background="new 0 0 100 100" xml:space="preserve">
<path d="M90,43.333C90,35.97,84.03,30,76.663,30c-4.391,0-8.255,2.151-10.684,5.43c-4.134-4.929-8.941-7.981-14.111-8.587L55,16.667
	H45l3.132,10.179C37.92,28.037,29.108,38.841,24.187,54.563c-0.521-1.429-0.854-2.952-0.854-4.563V30
	c0-7.363-5.97-13.333-13.333-13.333v6.667c3.682,0,6.667,2.984,6.667,6.666v20c0,5.205,2.005,9.932,5.26,13.486
	C20.703,69.671,20,76.341,20,83.333h60c0-7.845-0.847-15.315-2.37-22.109l8.464-8.463C88.506,50.349,90,47.015,90,43.333z
	 M26.882,76.667C28.562,50.813,39.817,33.333,50,33.333c10.186,0,21.442,17.48,23.118,43.334H26.882z M81.38,48.047l-5.797,5.798
	c-1.472-4.541-3.266-8.652-5.329-12.23c0.762-2.842,3.333-4.947,6.409-4.947c3.679,0,6.67,2.988,6.67,6.666
	C83.333,45.11,82.64,46.787,81.38,48.047z"/>
</svg>
