<?xml version="1.0" encoding="utf-8"?>
<!-- Generator: Adobe Illustrator 16.0.0, SVG Export Plug-In . SVG Version: 6.00 Build 0)  -->
<!DOCTYPE svg PUBLIC "-//W3C//DTD SVG 1.0//EN" "http://www.w3.org/TR/2001/REC-SVG-20010904/DTD/svg10.dtd">
<svg version="1.0" id="Layer_1" xmlns="http://www.w3.org/2000/svg" xmlns:xlink="http://www.w3.org/1999/xlink" x="0px" y="0px"
	 width="100px" height="100px" viewBox="0 0 100 100" enable-background="new 0 0 100 100" xml:space="preserve">
<path d="M76.667,23.333V10H23.333v13.333c-8.545,16.479-9.225,35.561,0,53.334V90h53.334V76.667
	C85.212,60.188,85.892,41.106,76.667,23.333z M30,16.667h40v6.667H30V16.667z M63.652,30c-3.604,13.145-3.604,26.853,0,40H36.351
	c3.604-13.142,3.604-26.853-0.003-40H63.652z M27.546,30h1.829c3.835,12.728,4.043,26.569-0.013,40h-1.82
	C21.927,56.979,21.927,43.03,27.546,30z M70,83.333H30v-6.666h40V83.333z M72.454,70h-1.829c-3.835-12.731-4.04-26.569,0.013-40
	h1.82C78.076,43.021,78.073,56.97,72.454,70z"/>
</svg>
