<?xml version="1.0" encoding="utf-8"?>
<!-- Generator: Adobe Illustrator 16.0.0, SVG Export Plug-In . SVG Version: 6.00 Build 0)  -->
<!DOCTYPE svg PUBLIC "-//W3C//DTD SVG 1.0//EN" "http://www.w3.org/TR/2001/REC-SVG-20010904/DTD/svg10.dtd">
<svg version="1.0" id="Layer_1" xmlns="http://www.w3.org/2000/svg" xmlns:xlink="http://www.w3.org/1999/xlink" x="0px" y="0px"
	 width="100px" height="100px" viewBox="0 0 100 100" enable-background="new 0 0 100 100" xml:space="preserve">
<path d="M50,10c-22.09,0-40,17.91-40,40c0,22.093,17.91,40,40,40c22.093,0,40-17.907,40-40C90,27.91,72.093,10,50,10z M50,83.333
	c-18.411,0-33.333-14.922-33.333-33.333S31.589,16.666,50,16.666S83.333,31.589,83.333,50S68.411,83.333,50,83.333z"/>
<path d="M69.7,46.667C68.112,37.21,59.909,30,50,30c-11.048,0-20,8.952-20,20s8.952,20,20,20c9.909,0,18.112-7.21,19.7-16.667h6.967
	v-6.666H69.7z M50,63.333c-7.363,0-13.333-5.967-13.333-13.333c0-7.363,5.97-13.333,13.333-13.333
	c7.366,0,13.333,5.97,13.333,13.333C63.333,57.366,57.366,63.333,50,63.333z"/>
</svg>
