<?xml version="1.0" encoding="utf-8"?>
<!-- Generator: Adobe Illustrator 16.0.0, SVG Export Plug-In . SVG Version: 6.00 Build 0)  -->
<!DOCTYPE svg PUBLIC "-//W3C//DTD SVG 1.0//EN" "http://www.w3.org/TR/2001/REC-SVG-20010904/DTD/svg10.dtd">
<svg version="1.0" id="Layer_1" xmlns="http://www.w3.org/2000/svg" xmlns:xlink="http://www.w3.org/1999/xlink" x="0px" y="0px"
	 width="100px" height="100px" viewBox="0 0 100 100" enable-background="new 0 0 100 100" xml:space="preserve">
<path d="M86.394,53.333H60h0.003h-3.336c-7.363,0-13.334,5.97-13.334,13.333v6.667c0,5.521,4.479,10,10,10H36.667v-40h15
	l1.666,3.333h13.334l1.666-3.333h8.334V10H10v80h73.333v-6.667H66.667c5.521,0,10-4.479,10-10v-6.667
	c0-2.441-0.703-4.697-1.85-6.666h7.312c0.752,2.09,1.204,4.322,1.204,6.666v6.667h6.664L90,66.666
	C90,61.81,88.672,57.259,86.394,53.333z M30,83.333H16.667V56.666h6.666V50h-6.666v-6.667h6.666v-6.667h-6.666v-20H70v20H30V83.333z
	 M70,73.333c0,1.843-1.494,3.333-3.333,3.333H53.333c-1.836,0-3.333-1.49-3.333-3.333v-6.667C50,62.994,52.988,60,56.667,60h6.666
	C67.009,60,70,62.994,70,66.666V73.333z"/>
<circle cx="28.333" cy="26.666" r="5"/>
<circle cx="45" cy="26.666" r="5"/>
</svg>
