<?xml version="1.0" encoding="utf-8"?>
<!-- Generator: Adobe Illustrator 16.0.0, SVG Export Plug-In . SVG Version: 6.00 Build 0)  -->
<!DOCTYPE svg PUBLIC "-//W3C//DTD SVG 1.0//EN" "http://www.w3.org/TR/2001/REC-SVG-20010904/DTD/svg10.dtd">
<svg version="1.0" id="Layer_1" xmlns="http://www.w3.org/2000/svg" xmlns:xlink="http://www.w3.org/1999/xlink" x="0px" y="0px"
	 width="100px" height="100px" viewBox="0 0 100 100" enable-background="new 0 0 100 100" xml:space="preserve">
<path d="M49.587,31.577l-3.333,5.776l5.771,3.334l-3.333,5.771l-35.36-20.415L10,31.816l35.358,20.417l-3.332,5.771
	c-0.917,1.589-0.368,3.64,1.219,4.554l2.887,1.667L42.799,70l5.775,3.334l3.333-5.775l5.771,3.334l-3.333,5.774L60.12,80
	l3.334-5.774l2.884,1.667c1.592,0.918,3.64,0.367,4.558-1.221l10-17.318l5.771,3.334L90,54.912L49.587,31.577z M66.79,68.454
	L49.466,58.451L57.8,44.018l17.32,10L66.79,68.454z"/>
<circle cx="75" cy="35" r="5"/>
<circle cx="65" cy="23.334" r="3.333"/>
<circle cx="79.167" cy="22.5" r="2.5"/>
<circle cx="85.833" cy="44.167" r="2.5"/>
</svg>
