<?xml version="1.0" encoding="utf-8"?>
<!-- Generator: Adobe Illustrator 16.0.0, SVG Export Plug-In . SVG Version: 6.00 Build 0)  -->
<!DOCTYPE svg PUBLIC "-//W3C//DTD SVG 1.0//EN" "http://www.w3.org/TR/2001/REC-SVG-20010904/DTD/svg10.dtd">
<svg version="1.0" id="Layer_1" xmlns="http://www.w3.org/2000/svg" xmlns:xlink="http://www.w3.org/1999/xlink" x="0px" y="0px"
	 width="100px" height="100px" viewBox="0 0 100 100" enable-background="new 0 0 100 100" xml:space="preserve">
<path d="M76.667,30v-6.667H70l-1.716-6.865C67.396,12.91,63.665,10,60,10H40c-3.665,0-7.396,2.91-8.281,6.468L30,23.333h-6.667V30
	H30l0.554,10h-3.337l1.853,33.333h3.34L33.333,90h33.334l0.924-16.667h3.34L72.78,40h-3.337L70,30H76.667z M38.184,18.086
	C38.33,17.5,39.401,16.667,40,16.667h20c0.603,0,1.67,0.833,1.816,1.419l1.312,5.247H36.872L38.184,18.086z M63.323,30l-0.557,10
	H37.233L36.68,30H63.323z M60.361,83.333h-20.72l-0.557-10h21.833L60.361,83.333z M64.622,66.667H35.378l-1.113-20h31.468
	L64.622,66.667z"/>
<rect x="41.667" y="53.333" width="16.666" height="6.667"/>
</svg>
