<?xml version="1.0" encoding="utf-8"?>
<!-- Generator: Adobe Illustrator 16.0.0, SVG Export Plug-In . SVG Version: 6.00 Build 0)  -->
<!DOCTYPE svg PUBLIC "-//W3C//DTD SVG 1.0//EN" "http://www.w3.org/TR/2001/REC-SVG-20010904/DTD/svg10.dtd">
<svg version="1.0" id="Layer_1" xmlns="http://www.w3.org/2000/svg" xmlns:xlink="http://www.w3.org/1999/xlink" x="0px" y="0px"
	 width="100px" height="100px" viewBox="0 0 100 100" enable-background="new 0 0 100 100" xml:space="preserve">
<path d="M80,23.333V10H20v13.333L10,90h80L80,23.333z M26.667,16.667h46.666v6.666H26.667V16.667z M17.74,83.333L25.742,30h46.592
	l-8.001,53.333H17.74z M76.667,46.055l5.592,37.278H71.074L76.667,46.055z"/>
<path d="M45,36.667c-8.284,0-15,8.955-15,20s6.716,20,15,20s15-8.955,15-20S53.284,36.667,45,36.667z M44.499,43.418
	c0.137,4.749-0.639,9.593-2.572,14.261c-1.175,2.836-1.939,5.834-2.33,8.896c-1.713-2.363-2.93-5.794-2.93-9.908
	C36.667,49.141,40.693,43.854,44.499,43.418z M45.97,69.837c0.137-3.262,0.834-6.504,2.116-9.609
	c1.66-4.01,2.646-8.177,3.008-12.376c1.331,2.285,2.239,5.29,2.239,8.815C53.333,63.884,49.629,69.036,45.97,69.837z"/>
</svg>
