<?xml version="1.0" encoding="utf-8"?>
<!-- Generator: Adobe Illustrator 16.0.0, SVG Export Plug-In . SVG Version: 6.00 Build 0)  -->
<!DOCTYPE svg PUBLIC "-//W3C//DTD SVG 1.0//EN" "http://www.w3.org/TR/2001/REC-SVG-20010904/DTD/svg10.dtd">
<svg version="1.0" id="Layer_1" xmlns="http://www.w3.org/2000/svg" xmlns:xlink="http://www.w3.org/1999/xlink" x="0px" y="0px"
	 width="100px" height="100px" viewBox="0 0 100 100" enable-background="new 0 0 100 100" xml:space="preserve">
<path d="M63.333,36.666v-6.667c0-11.042-8.955-20-20-20c0,3.682-2.984,6.667-6.666,6.667H30c-7.36,0-13.333,5.97-13.333,13.333v50
	c0,5.521,4.479,10,10,10l26.666,0.004c5.521,0,10-4.479,10-10V69.998H70c7.363,0,13.333-5.969,13.333-13.332v-20H63.333z M30,23.332
	h6.667c4.609,0,8.682-2.35,11.077-5.918c5.188,1.823,8.923,6.777,8.923,12.585H23.333C23.333,26.32,26.321,23.332,30,23.332z
	 M56.667,36.666v6.666H23.333v-6.666H56.667z M23.333,56.666v-6.667h33.334v6.667H23.333z M56.667,63.332v6.666H23.333v-6.666
	H56.667z M53.333,83.336l-26.666-0.004c-1.836,0-3.334-1.494-3.334-3.334v-3.332h33.334v3.336
	C56.667,81.842,55.173,83.336,53.333,83.336z M76.667,56.666c0,3.674-2.992,6.666-6.667,6.666h-6.667v-20h13.334V56.666z"/>
</svg>
