<?xml version="1.0" encoding="utf-8"?>
<!-- Generator: Adobe Illustrator 16.0.0, SVG Export Plug-In . SVG Version: 6.00 Build 0)  -->
<!DOCTYPE svg PUBLIC "-//W3C//DTD SVG 1.0//EN" "http://www.w3.org/TR/2001/REC-SVG-20010904/DTD/svg10.dtd">
<svg version="1.0" id="Layer_1" xmlns="http://www.w3.org/2000/svg" xmlns:xlink="http://www.w3.org/1999/xlink" x="0px" y="0px"
	 width="100px" height="100px" viewBox="0 0 100 100" enable-background="new 0 0 100 100" xml:space="preserve">
<path d="M80,36.667H70C70,27.461,62.532,20,53.333,20h-6.666c-5.521,0-10-4.479-10-10C21.94,10,10,21.946,10,36.667V60
	c0,9.434,4.358,17.839,11.165,23.333H10V90h60v-6.667H58.838c5.146-4.16,8.877-9.986,10.394-16.666H80c5.521,0,10-4.479,10-10v-10
	C90,41.146,85.521,36.667,80,36.667z M63.333,60c0,12.864-10.469,23.333-23.333,23.333S16.667,72.864,16.667,60V43.333h46.666V60z
	 M16.667,36.667c0-9.311,6.393-17.152,15.016-19.372c2.712,5.544,8.408,9.372,14.984,9.372h6.666c5.515,0,10,4.485,10,10H16.667z
	 M83.333,56.667C83.333,58.509,81.839,60,80,60H70V43.333h10c1.839,0,3.333,1.498,3.333,3.334V56.667z"/>
</svg>
