<?xml version="1.0" encoding="utf-8"?>
<!-- Generator: Adobe Illustrator 16.0.0, SVG Export Plug-In . SVG Version: 6.00 Build 0)  -->
<!DOCTYPE svg PUBLIC "-//W3C//DTD SVG 1.0//EN" "http://www.w3.org/TR/2001/REC-SVG-20010904/DTD/svg10.dtd">
<svg version="1.0" id="Layer_1" xmlns="http://www.w3.org/2000/svg" xmlns:xlink="http://www.w3.org/1999/xlink" x="0px" y="0px"
	 width="100px" height="100px" viewBox="0 0 100 100" enable-background="new 0 0 100 100" xml:space="preserve">
<path d="M90,30H67.409l-0.742-6.667l-10-6.667L58.333,10h-10L50,16.667l-10,6.667l-3.281,29.521L17.454,23.333H10l24.544,49.091
	l-1.211,10.908V90h40v-6.667l-0.95-8.561C83.278,63.008,90,47.302,90,30z M52.019,23.333h2.63l5.735,3.821L60.7,30H45.967
	l0.315-2.845L52.019,23.333z M40.039,83.333l5.188-46.666h16.211l5.186,46.666H40.039z M68.147,36.667h14.818
	c-1.176,10.582-5.189,20.521-11.596,28.99L68.147,36.667z"/>
</svg>
