<?xml version="1.0" encoding="utf-8"?>
<!-- Generator: Adobe Illustrator 16.0.0, SVG Export Plug-In . SVG Version: 6.00 Build 0)  -->
<!DOCTYPE svg PUBLIC "-//W3C//DTD SVG 1.0//EN" "http://www.w3.org/TR/2001/REC-SVG-20010904/DTD/svg10.dtd">
<svg version="1.0" id="Layer_1" xmlns="http://www.w3.org/2000/svg" xmlns:xlink="http://www.w3.org/1999/xlink" x="0px" y="0px"
	 width="100px" height="100px" viewBox="0 0 100 100" enable-background="new 0 0 100 100" xml:space="preserve">
<path d="M63.333,9.999l-26.666,0.003c-7.363,0-13.334,5.971-13.334,13.334v66.667h53.334v-66.67
	C76.667,15.968,70.696,9.999,63.333,9.999z M53.968,83.334h-7.933l-2.002-20h11.934L53.968,83.334z M70,83.334h-9.333l2.666-26.666
	H36.667l2.666,26.666H30V36.668h10v6.666h6.667v6.667h6.666v-6.667H60v-6.666h10V83.334z M70,30.001H30v-6.666
	c0-3.679,2.988-6.667,6.667-6.667h10v6.667h6.666v-6.67h10c3.676,0,6.667,2.991,6.667,6.666V30.001z"/>
</svg>
