<?xml version="1.0" encoding="utf-8"?>
<!-- Generator: Adobe Illustrator 16.0.0, SVG Export Plug-In . SVG Version: 6.00 Build 0)  -->
<!DOCTYPE svg PUBLIC "-//W3C//DTD SVG 1.0//EN" "http://www.w3.org/TR/2001/REC-SVG-20010904/DTD/svg10.dtd">
<svg version="1.0" id="Layer_1" xmlns="http://www.w3.org/2000/svg" xmlns:xlink="http://www.w3.org/1999/xlink" x="0px" y="0px"
	 width="100px" height="100px" viewBox="0 0 100 100" enable-background="new 0 0 100 100" xml:space="preserve">
<path d="M59.388,30.001h13.945c3.682,0,6.667-2.986,6.667-6.668V9.999h-6.667v13.334H59.388c-1.38-3.874-5.042-6.667-9.388-6.667
	c-5.521,0-10,4.479-10,10c0,4.344,2.793,8.01,6.667,9.39v3.945H20v10c0,5.521,4.479,10,10,10h6.667l-3.334,10h-6.666v20h46.666v-20
	h-6.666l-3.334-10H70c5.521,0,10-4.479,10-10v-10H53.333v-3.945C56.159,35.047,58.382,32.826,59.388,30.001z M66.667,76.668v6.666
	H33.333v-6.666H66.667z M40.361,70.001l3.333-10h12.611l3.333,10H40.361z M73.333,46.668v3.333c0,1.836-1.494,3.333-3.333,3.333H30
	c-1.836,0-3.333-1.497-3.333-3.333v-3.333H73.333z M50,30.001c-1.843,0-3.333-1.497-3.333-3.335c0-1.843,1.49-3.333,3.333-3.333
	s3.333,1.49,3.333,3.333C53.333,28.504,51.843,30.001,50,30.001z"/>
</svg>
