<?xml version="1.0" encoding="utf-8"?>
<!-- Generator: Adobe Illustrator 16.0.0, SVG Export Plug-In . SVG Version: 6.00 Build 0)  -->
<!DOCTYPE svg PUBLIC "-//W3C//DTD SVG 1.0//EN" "http://www.w3.org/TR/2001/REC-SVG-20010904/DTD/svg10.dtd">
<svg version="1.0" id="Layer_1" xmlns="http://www.w3.org/2000/svg" xmlns:xlink="http://www.w3.org/1999/xlink" x="0px" y="0px"
	 width="100px" height="100px" viewBox="0 0 100 100" enable-background="new 0 0 100 100" xml:space="preserve">
<path d="M90,40v-6.667h-5l-2.526-10.098C82.031,21.455,80.166,20,78.333,20H65c-1.833,0-3.698,1.455-4.141,3.235l-2.526,10.098h-5
	V40h5L60,60H40l1.667-20h5v-6.667h-5l-2.526-10.098C38.698,21.455,36.833,20,35,20H21.667c-1.833,0-3.698,1.455-4.141,3.235
	L15,33.333h-5V40h5l1.667,20H10v6.667h7.22L18.333,80h20l1.113-13.333h21.11L61.667,80h20l1.109-13.333H90V60h-6.667L85,40H90z
	 M23.538,26.667h9.59l1.667,6.666H21.872L23.538,26.667z M21.689,40h13.288l-1.667,20h-9.954L21.689,40z M32.2,73.333h-7.734
	l-0.553-6.666h8.841L32.2,73.333z M66.872,26.667h9.59l1.666,6.666H65.205L66.872,26.667z M75.534,73.333H67.8l-0.557-6.666h8.848
	L75.534,73.333z M76.644,60h-9.954l-1.667-20h13.288L76.644,60z"/>
</svg>
