<?xml version="1.0" encoding="utf-8"?>
<!-- Generator: Adobe Illustrator 16.0.0, SVG Export Plug-In . SVG Version: 6.00 Build 0)  -->
<!DOCTYPE svg PUBLIC "-//W3C//DTD SVG 1.0//EN" "http://www.w3.org/TR/2001/REC-SVG-20010904/DTD/svg10.dtd">
<svg version="1.0" id="Layer_1" xmlns="http://www.w3.org/2000/svg" xmlns:xlink="http://www.w3.org/1999/xlink" x="0px" y="0px"
	 width="100px" height="100px" viewBox="0 0 100 100" enable-background="new 0 0 100 100" xml:space="preserve">
<path d="M63.333,73.333C72.539,73.333,80,65.872,80,56.667c0-8.607-6.55-15.605-14.922-16.491l1.589-13.51c0-5.52-4.479-10-10-10
	c-2.08,0-4.011,0.639-5.612,1.727C48.174,13.398,42.845,10,36.667,10C27.461,10,20,17.461,20,26.666l6.667,56.667
	C22.985,83.333,20,86.318,20,90l46.667-0.003c0-3.682-2.985-6.667-6.667-6.667l1.175-9.997H63.333z M73.333,56.667
	c0,5.523-4.476,10-10,10H61.96l2.344-19.902C69.365,47.259,73.333,51.478,73.333,56.667z M36.667,16.666c5.521,0,10,4.48,10,10h-20
	C26.667,21.146,31.146,16.666,36.667,16.666z M27.497,33.333H59.17L53.288,83.33l-19.909,0.003L27.497,33.333z"/>
</svg>
