<?xml version="1.0" encoding="utf-8"?>
<!-- Generator: Adobe Illustrator 16.0.0, SVG Export Plug-In . SVG Version: 6.00 Build 0)  -->
<!DOCTYPE svg PUBLIC "-//W3C//DTD SVG 1.0//EN" "http://www.w3.org/TR/2001/REC-SVG-20010904/DTD/svg10.dtd">
<svg version="1.0" id="Layer_1" xmlns="http://www.w3.org/2000/svg" xmlns:xlink="http://www.w3.org/1999/xlink" x="0px" y="0px"
	 width="100px" height="100px" viewBox="0 0 100 100" enable-background="new 0 0 100 100" xml:space="preserve">
<path d="M50,30l-6.667-20h-30v6.667h25.195L42.972,30H26.667v6.667h6.666l5,53.333H75l5-53.333h6.667V30H50z M44.404,83.333
	l-3.115-33.206c3.919,0.271,7.813,1.146,11.55,2.692c6.002,2.483,12.291,3.736,18.594,3.818l-2.504,26.695H44.404z M72.061,49.929
	c-5.563,0.006-11.218-1.01-16.673-3.269c-4.646-1.927-9.633-2.966-14.721-3.19l-0.638-6.803h33.274L72.061,49.929z"/>
</svg>
