<?xml version="1.0" encoding="utf-8"?>
<!-- Generator: Adobe Illustrator 16.0.0, SVG Export Plug-In . SVG Version: 6.00 Build 0)  -->
<!DOCTYPE svg PUBLIC "-//W3C//DTD SVG 1.0//EN" "http://www.w3.org/TR/2001/REC-SVG-20010904/DTD/svg10.dtd">
<svg version="1.0" id="Layer_1" xmlns="http://www.w3.org/2000/svg" xmlns:xlink="http://www.w3.org/1999/xlink" x="0px" y="0px"
	 width="100px" height="100px" viewBox="0 0 100 100" enable-background="new 0 0 100 100" xml:space="preserve">
<path d="M70,10c-9.209,0-16.667,7.461-16.667,16.667C62.539,26.667,70.007,19.202,70,10z"/>
<path d="M53.333,59.997c0,1.842-1.494,3.336-3.33,3.336c-1.842,0-3.336-1.494-3.336-3.336c0-1.836,1.494-3.33,3.336-3.33
	C51.839,56.667,53.333,58.161,53.333,59.997z"/>
<path d="M66.667,66.663c0,1.843-1.494,3.337-3.33,3.337C61.494,70,60,68.506,60,66.663c0-1.836,1.494-3.33,3.337-3.33
	C65.173,63.333,66.667,64.827,66.667,66.663z"/>
<path d="M56.667,73.33c0,1.843-1.494,3.337-3.33,3.337c-1.843,0-3.337-1.494-3.337-3.337c0-1.836,1.494-3.33,3.337-3.33
	C55.173,70,56.667,71.494,56.667,73.33z"/>
<path d="M50,30l-6.667-20H13.334v6.667h25.194L42.972,30H26.667v6.667h6.666l5,53.333H75l5-53.333h6.667V30H50z M44.404,83.333
	L41.289,50.13c3.919,0.268,7.813,1.143,11.55,2.689c6.002,2.483,12.291,3.736,18.594,3.818l-2.504,26.695H44.404z M72.063,49.902
	c-5.566,0.013-11.217-0.983-16.676-3.242c-4.648-1.927-9.636-2.969-14.721-3.19l-0.638-6.803h33.274L72.063,49.902z"/>
</svg>
