<?xml version="1.0" encoding="utf-8"?>
<!-- Generator: Adobe Illustrator 16.0.0, SVG Export Plug-In . SVG Version: 6.00 Build 0)  -->
<!DOCTYPE svg PUBLIC "-//W3C//DTD SVG 1.0//EN" "http://www.w3.org/TR/2001/REC-SVG-20010904/DTD/svg10.dtd">
<svg version="1.0" id="Layer_1" xmlns="http://www.w3.org/2000/svg" xmlns:xlink="http://www.w3.org/1999/xlink" x="0px" y="0px"
	 width="100px" height="100px" viewBox="0 0 100 100" enable-background="new 0 0 100 100" xml:space="preserve">
<path d="M70,36.667c0-6.938-3.532-13.044-8.894-16.632l2.227-8.311L56.897,10l-1.959,7.305c-1.582-0.4-3.229-0.639-4.938-0.639
	c-11.048,0-20,8.953-20,20.001h-6.667v6.666H30L33.333,90h33.334L70,43.333h6.667v-6.666H70z M63.333,36.667H56.65l2.571-9.601
	C61.748,29.492,63.333,32.888,63.333,36.667z M50,23.334c1.113,0,2.175,0.176,3.21,0.432l-3.457,12.901H36.667
	C36.667,29.304,42.637,23.334,50,23.334z M60.459,83.333H39.541l-2.854-40h11.275l-4.869,18.184l6.438,1.726l5.332-19.909h8.454
	L60.459,83.333z"/>
</svg>
