<?xml version="1.0" encoding="utf-8"?>
<!-- Generator: Adobe Illustrator 16.0.0, SVG Export Plug-In . SVG Version: 6.00 Build 0)  -->
<!DOCTYPE svg PUBLIC "-//W3C//DTD SVG 1.0//EN" "http://www.w3.org/TR/2001/REC-SVG-20010904/DTD/svg10.dtd">
<svg version="1.0" id="Layer_1" xmlns="http://www.w3.org/2000/svg" xmlns:xlink="http://www.w3.org/1999/xlink" x="0px" y="0px"
	 width="100px" height="100px" viewBox="0 0 100 100" enable-background="new 0 0 100 100" xml:space="preserve">
<path d="M76.667,16.667V10H53.333l-2.669,8.001c-2.019-2.929-4.47-5.631-7.331-8.001C35.095,16.829,30,26.257,30,36.667h-6.667
	c0,16.367,2.871,32.083,8.066,46.666H30c-3.682,0-6.667,2.985-6.667,6.667l40-0.003c0-3.682-2.984-6.667-6.666-6.667h-1.4
	c5.192-14.58,8.066-30.296,8.066-46.663h-6.666c0-3.574-0.642-7.025-1.765-10.3l3.235-9.7H76.667z M43.333,19.316
	C47.666,24.421,50,30.423,50,36.667H36.667C36.667,30.423,39.001,24.421,43.333,19.316z M56.501,43.333
	c-0.681,13.718-3.471,27.129-8.324,40h-9.688c-4.85-12.871-7.643-26.282-8.323-40H56.501z"/>
</svg>
