<?xml version="1.0" encoding="utf-8"?>
<!-- Generator: Adobe Illustrator 16.0.0, SVG Export Plug-In . SVG Version: 6.00 Build 0)  -->
<!DOCTYPE svg PUBLIC "-//W3C//DTD SVG 1.0//EN" "http://www.w3.org/TR/2001/REC-SVG-20010904/DTD/svg10.dtd">
<svg version="1.0" id="Layer_1" xmlns="http://www.w3.org/2000/svg" xmlns:xlink="http://www.w3.org/1999/xlink" x="0px" y="0px"
	 width="100px" height="100px" viewBox="0 0 100 100" enable-background="new 0 0 100 100" xml:space="preserve">
<path d="M50,10c-18.401,0-33.333,14.916-33.333,33.333c0,9.199,3.73,17.533,9.766,23.568L50,90l23.574-23.105
	c6.035-6.028,9.766-14.362,9.759-23.567C83.333,24.932,68.411,10,50,10z M68.864,62.178L50,80.664L31.101,62.139
	c-4.994-4.99-7.768-11.687-7.768-18.806c0-14.703,11.963-26.667,26.667-26.667s26.667,11.959,26.667,26.661
	C76.673,50.452,73.899,57.146,68.864,62.178z"/>
<path d="M50,23.333c-8.284,0-15,8.955-15,20s6.716,20,15,20s15-8.955,15-20S58.284,23.333,50,23.333z M49.499,30.085
	c0.137,4.749-0.639,9.593-2.572,14.261c-1.175,2.835-1.939,5.833-2.33,8.896c-1.713-2.363-2.93-5.794-2.93-9.909
	C41.667,35.808,45.693,30.521,49.499,30.085z M50.97,56.504c0.137-3.262,0.834-6.504,2.116-9.609
	c1.66-4.011,2.646-8.177,3.008-12.376c1.331,2.285,2.239,5.289,2.239,8.814C58.333,50.55,54.629,55.703,50.97,56.504z"/>
</svg>
