<?xml version="1.0" encoding="utf-8"?>
<!-- Generator: Adobe Illustrator 16.0.0, SVG Export Plug-In . SVG Version: 6.00 Build 0)  -->
<!DOCTYPE svg PUBLIC "-//W3C//DTD SVG 1.0//EN" "http://www.w3.org/TR/2001/REC-SVG-20010904/DTD/svg10.dtd">
<svg version="1.0" id="Layer_1" xmlns="http://www.w3.org/2000/svg" xmlns:xlink="http://www.w3.org/1999/xlink" x="0px" y="0px"
	 width="100px" height="100px" viewBox="0 0 100 100" enable-background="new 0 0 100 100" xml:space="preserve">
<path d="M83.477,56.374L90,55l-6.667-31.667c-0.003,0-9.28,1.953-15.286,3.216L66.667,20h-10L60,10H46.667L50,20H40l-9.492,45.091
	c-4.245-2.227-7.175-6.627-7.175-11.758V36.667c0-7.363-5.97-13.333-13.333-13.333V30c3.682,0,6.667,2.985,6.667,6.667v16.666
	c0,8.363,5.137,15.518,12.422,18.503l-2.422,11.497V90H80v-6.667L69.421,33.076c2.646-0.557,5.918-1.247,8.763-1.846L83.477,56.374z
	 M73.187,83.333H33.479L45.41,26.667h15.847L73.187,83.333z"/>
</svg>
