<?xml version="1.0" encoding="utf-8"?>
<!-- Generator: Adobe Illustrator 16.0.0, SVG Export Plug-In . SVG Version: 6.00 Build 0)  -->
<!DOCTYPE svg PUBLIC "-//W3C//DTD SVG 1.0//EN" "http://www.w3.org/TR/2001/REC-SVG-20010904/DTD/svg10.dtd">
<svg version="1.0" id="Layer_1" xmlns="http://www.w3.org/2000/svg" xmlns:xlink="http://www.w3.org/1999/xlink" x="0px" y="0px"
	 width="100px" height="100px" viewBox="0 0 100 100" enable-background="new 0 0 100 100" xml:space="preserve">
<path d="M73.333,36.667H70l-20-20V10h-6.667v6.667l-20,20h-6.666L23.333,50v33.333C23.333,86.999,26.335,90,30,90h33.333
	C66.999,90,70,86.999,70,83.333v-40h3.333c1.84,0,3.334,1.498,3.334,3.334V70h6.666V46.667
	C83.333,41.146,78.857,36.667,73.333,36.667z M46.094,23.333h1.146l13.334,13.333H60H32.761L46.094,23.333z M63.333,83.333H30
	V48.425l-2.546-5.092h35.879V83.333z"/>
</svg>
