<?xml version="1.0" encoding="utf-8"?>
<!-- Generator: Adobe Illustrator 16.0.0, SVG Export Plug-In . SVG Version: 6.00 Build 0)  -->
<!DOCTYPE svg PUBLIC "-//W3C//DTD SVG 1.0//EN" "http://www.w3.org/TR/2001/REC-SVG-20010904/DTD/svg10.dtd">
<svg version="1.0" id="Layer_1" xmlns="http://www.w3.org/2000/svg" xmlns:xlink="http://www.w3.org/1999/xlink" x="0px" y="0px"
	 width="100px" height="100px" viewBox="0 0 100 100" enable-background="new 0 0 100 100" xml:space="preserve">
<path d="M82.854,54.29c6.582-7.1,9.072-17.533,5.534-27.259c-1.889-5.19-7.631-7.864-12.816-5.975l-22.132,8.055
	c-7.992-16.046-16.693-15.25-18.438-12.672c-2.777,4.102,12.778,17.591-4.258,7.401c-17.038-10.194-17.409,0-17.409,0
	c0,7.467,10.542,11.521,17.71,13.421l-8.724,3.176l8.262,11.181l6.078,27.829c1.802,8.187,9.718,12.539,17.596,9.671l25.01-9.104
	c7.877-2.864,11.143-11.289,7.262-18.714L82.854,54.29z M77.851,27.321c1.729-0.63,3.643,0.264,4.273,1.99
	c2.357,6.477,1.146,13.397-2.62,18.597l-9.333-17.793L77.851,27.321z M81.093,69.954c-0.671,1.729-2.133,3.076-4.108,3.796
	l-25.01,9.102c-1.979,0.719-3.96,0.625-5.584-0.268c-1.624-0.892-2.767-2.516-3.219-4.57l-6.38-29.212l-3.805-5.151L63.85,32.415
	l16.774,31.979C81.594,66.25,81.763,68.229,81.093,69.954z"/>
<circle cx="26.669" cy="13.333" r="3.333"/>
<circle cx="55.835" cy="20.833" r="2.5"/>
<circle cx="12.502" cy="35.833" r="2.5"/>
</svg>
