<?xml version="1.0" encoding="utf-8"?>
<!-- Generator: Adobe Illustrator 16.0.0, SVG Export Plug-In . SVG Version: 6.00 Build 0)  -->
<!DOCTYPE svg PUBLIC "-//W3C//DTD SVG 1.0//EN" "http://www.w3.org/TR/2001/REC-SVG-20010904/DTD/svg10.dtd">
<svg version="1.0" id="Layer_1" xmlns="http://www.w3.org/2000/svg" xmlns:xlink="http://www.w3.org/1999/xlink" x="0px" y="0px"
	 width="100px" height="100px" viewBox="0 0 100 100" enable-background="new 0 0 100 100" xml:space="preserve">
<path d="M72.751,44.504l15.784-15.787c1.953-1.953,1.953-5.117,0-7.07s-5.12-1.953-7.07,0L65.681,37.431
	c-7.669-4.527-17.699-3.516-24.288,3.069L20.179,66.432L43.75,90l25.928-21.211C76.267,62.199,77.275,52.17,72.751,44.504z
	 M44.199,81.021L29.16,65.982l17.162-20.976c5.215-4.987,13.516-4.916,18.642,0.211c5.131,5.127,5.199,13.427,0.209,18.642
	L44.199,81.021z"/>
<ellipse transform="matrix(0.7071 -0.7071 0.7071 0.7071 -1.3671 43.3663)" cx="51.667" cy="23.333" rx="5" ry="8.335"/>
<ellipse cx="15" cy="51.666" rx="5" ry="8.334"/>
<ellipse cx="35" cy="18.333" rx="5" ry="8.333"/>
<path d="M13.336,21.256c3.252-3.255,7.475-4.31,9.427-2.356c1.95,1.953,0.898,6.175-2.359,9.427c-3.252,3.255-7.474,4.31-9.427,2.36
	C9.03,28.734,10.084,24.511,13.336,21.256z"/>
<ellipse cx="28.333" cy="38.333" rx="8.333" ry="5"/>
</svg>
