<svg width="3526" height="1008" viewBox="0 0 3526 1008" fill="none" xmlns="http://www.w3.org/2000/svg">
<mask id="mask0" mask-type="alpha" maskUnits="userSpaceOnUse" x="0" y="0" width="3526" height="1008">
<rect y="551" width="1980" height="457" fill="#C4C4C4"/>
<rect x="2016" width="1510" height="457" fill="#C4C4C4"/>
</mask>
<g mask="url(#mask0)">
<path d="M42 319.556C115.833 387.556 304.3 482.756 467.5 319.556C630.7 156.356 814.167 251.556 885.5 319.556" stroke="black" stroke-width="15"/>
<path d="M1729.5 319.556C1803.33 387.556 1991.8 482.756 2155 319.556C2318.2 156.356 2501.67 251.556 2573 319.556" stroke="black" stroke-width="15"/>
<path d="M885.5 319.556C959.333 387.556 1147.8 482.756 1311 319.556C1474.2 156.356 1657.67 251.556 1729 319.556" stroke="black" stroke-width="15"/>
<path d="M2573 319.556C2646.83 387.556 2835.3 482.756 2998.5 319.556C3161.7 156.356 3345.17 251.556 3416.5 319.556" stroke="black" stroke-width="15"/>
<path d="M42 276.334C115.833 344.334 304.3 439.534 467.5 276.334C630.7 113.134 814.167 208.334 885.5 276.334" stroke="#FD9518" stroke-width="15"/>
<path d="M1729.5 276.334C1803.33 344.334 1991.8 439.534 2155 276.334C2318.2 113.134 2501.67 208.334 2573 276.334" stroke="#FD9518" stroke-width="15"/>
<path d="M885.5 276.334C959.333 344.334 1147.8 439.534 1311 276.334C1474.2 113.134 1657.67 208.334 1729 276.334" stroke="#FD9518" stroke-width="15"/>
<path d="M2573 276.334C2646.83 344.334 2835.3 439.534 2998.5 276.334C3161.7 113.134 3345.17 208.334 3416.5 276.334" stroke="#FD9518" stroke-width="15"/>
<path d="M42 233.111C115.833 301.111 304.3 396.311 467.5 233.111C630.7 69.9111 814.167 165.111 885.5 233.111" stroke="black" stroke-width="15"/>
<path d="M1729.5 233.111C1803.33 301.111 1991.8 396.311 2155 233.111C2318.2 69.9111 2501.67 165.111 2573 233.111" stroke="black" stroke-width="15"/>
<path d="M885.5 233.111C959.333 301.111 1147.8 396.311 1311 233.111C1474.2 69.9111 1657.67 165.111 1729 233.111" stroke="black" stroke-width="15"/>
<path d="M2573 233.111C2646.83 301.111 2835.3 396.311 2998.5 233.111C3161.7 69.9111 3345.17 165.111 3416.5 233.111" stroke="black" stroke-width="15"/>
<path d="M42 737.111C115.833 669.111 304.3 573.911 467.5 737.111C630.7 900.311 814.167 805.111 885.5 737.111" stroke="#FD9518" stroke-width="15"/>
<path d="M1729.5 737.111C1803.33 669.111 1991.8 573.911 2155 737.111C2318.2 900.311 2501.67 805.111 2573 737.111" stroke="#FD9518" stroke-width="15"/>
<path d="M885.5 737.111C959.333 669.111 1147.8 573.911 1311 737.111C1474.2 900.311 1657.67 805.111 1729 737.111" stroke="#FD9518" stroke-width="15"/>
<path d="M2573 737.111C2646.83 669.111 2835.3 573.911 2998.5 737.111C3161.7 900.311 3345.17 805.111 3416.5 737.111" stroke="#FD9518" stroke-width="15"/>
<path d="M42 780.334C115.833 712.334 304.3 617.134 467.5 780.334C630.7 943.534 814.167 848.334 885.5 780.334" stroke="black" stroke-width="15"/>
<path d="M1729.5 780.334C1803.33 712.334 1991.8 617.134 2155 780.334C2318.2 943.534 2501.67 848.334 2573 780.334" stroke="black" stroke-width="15"/>
<path d="M885.5 780.334C959.333 712.334 1147.8 617.134 1311 780.334C1474.2 943.534 1657.67 848.334 1729 780.334" stroke="black" stroke-width="15"/>
<path d="M2573 780.334C2646.83 712.334 2835.3 617.134 2998.5 780.334C3161.7 943.534 3345.17 848.334 3416.5 780.334" stroke="black" stroke-width="15"/>
<path d="M42 823.556C115.833 755.556 304.3 660.356 467.5 823.556C630.7 986.756 814.167 891.556 885.5 823.556" stroke="black" stroke-width="15"/>
<path d="M1729.5 823.556C1803.33 755.556 1991.8 660.356 2155 823.556C2318.2 986.756 2501.67 891.556 2573 823.556" stroke="black" stroke-width="15"/>
<path d="M885.5 823.556C959.333 755.556 1147.8 660.356 1311 823.556C1474.2 986.756 1657.67 891.556 1729 823.556" stroke="black" stroke-width="15"/>
<path d="M2573 823.556C2646.83 755.556 2835.3 660.356 2998.5 823.556C3161.7 986.756 3345.17 891.556 3416.5 823.556" stroke="black" stroke-width="15"/>
</g>
</svg>
