<svg width="1627" height="815" viewBox="0 0 1627 815" fill="none" xmlns="http://www.w3.org/2000/svg">
<path d="M747.738 702.975C693.978 651.285 552.941 574.611 418.867 681.432C251.275 814.96 64.0129 534.194 7.75451 623.378" stroke="#FD9518" stroke-width="15"/>
<path d="M747.55 745.463C693.791 693.773 552.753 617.099 418.68 723.921C251.088 857.448 63.8252 576.682 7.56688 665.866" stroke="#060709" stroke-width="15"/>
<path d="M747.362 787.95C693.603 736.26 552.566 659.586 418.492 766.408C250.9 899.935 63.6376 619.169 7.37926 708.353" stroke="#060709" stroke-width="15"/>
<path d="M1620.59 113.975C1566.83 62.2851 1425.8 -14.3892 1291.72 92.4326C1124.13 225.96 936.867 -54.806 880.609 34.3777" stroke="#060709" stroke-width="15"/>
<path d="M1620.4 156.463C1566.64 104.773 1425.61 28.0988 1291.53 134.921C1123.94 268.448 936.679 -12.318 880.421 76.8658" stroke="#FD9518" stroke-width="15"/>
<path d="M1620.22 198.95C1566.46 147.261 1425.42 70.5862 1291.35 177.408C1123.75 310.935 936.492 30.1694 880.233 119.353" stroke="#060709" stroke-width="15"/>
</svg>
