<svg width="3386" height="283" viewBox="0 0 3386 283" fill="none" xmlns="http://www.w3.org/2000/svg">
<path d="M6 98.1112C79.8333 30.1112 268.3 -65.0888 431.5 98.1112C594.7 261.311 778.167 166.111 849.5 98.1112" stroke="#FD9518" stroke-width="15"/>
<path d="M1693 98.1112C1766.83 30.1112 1955.3 -65.0888 2118.5 98.1112C2281.7 261.311 2465.17 166.111 2536.5 98.1112" stroke="#FD9518" stroke-width="15"/>
<path d="M849.5 98.1112C923.333 30.1112 1111.8 -65.0888 1275 98.1112C1438.2 261.311 1621.67 166.111 1693 98.1112" stroke="#FD9518" stroke-width="15"/>
<path d="M2536.5 98.1112C2610.33 30.1112 2798.8 -65.0888 2962 98.1112C3125.2 261.311 3308.67 166.111 3380 98.1112" stroke="#FD9518" stroke-width="15"/>
<path d="M6 141.334C79.8333 73.3336 268.3 -21.8664 431.5 141.334C594.7 304.534 778.167 209.334 849.5 141.334" stroke="#07080A" stroke-width="15"/>
<path d="M1693 141.334C1766.83 73.3336 1955.3 -21.8664 2118.5 141.334C2281.7 304.534 2465.17 209.334 2536.5 141.334" stroke="#07080A" stroke-width="15"/>
<path d="M849.5 141.334C923.333 73.3336 1111.8 -21.8664 1275 141.334C1438.2 304.534 1621.67 209.334 1693 141.334" stroke="#07080A" stroke-width="15"/>
<path d="M2536.5 141.334C2610.33 73.3336 2798.8 -21.8664 2962 141.334C3125.2 304.534 3308.67 209.334 3380 141.334" stroke="#07080A" stroke-width="15"/>
<path d="M6 184.556C79.8333 116.556 268.3 21.356 431.5 184.556C594.7 347.756 778.167 252.556 849.5 184.556" stroke="#07080A" stroke-width="15"/>
<path d="M1693 184.556C1766.83 116.556 1955.3 21.356 2118.5 184.556C2281.7 347.756 2465.17 252.556 2536.5 184.556" stroke="#07080A" stroke-width="15"/>
<path d="M849.5 184.556C923.333 116.556 1111.8 21.356 1275 184.556C1438.2 347.756 1621.67 252.556 1693 184.556" stroke="#07080A" stroke-width="15"/>
<path d="M2536.5 184.556C2610.33 116.556 2798.8 21.356 2962 184.556C3125.2 347.756 3308.67 252.556 3380 184.556" stroke="#07080A" stroke-width="15"/>
</svg>
