<svg width="3386" height="787" viewBox="0 0 3386 787" fill="none" xmlns="http://www.w3.org/2000/svg">
<path d="M6 184.556C79.8333 252.556 268.3 347.756 431.5 184.556C594.7 21.356 778.167 116.556 849.5 184.556" stroke="black" stroke-width="15"/>
<path d="M1693.5 184.556C1767.33 252.556 1955.8 347.756 2119 184.556C2282.2 21.356 2465.67 116.556 2537 184.556" stroke="black" stroke-width="15"/>
<path d="M849.5 184.556C923.333 252.556 1111.8 347.756 1275 184.556C1438.2 21.356 1621.67 116.556 1693 184.556" stroke="black" stroke-width="15"/>
<path d="M2537 184.556C2610.83 252.556 2799.3 347.756 2962.5 184.556C3125.7 21.356 3309.17 116.556 3380.5 184.556" stroke="black" stroke-width="15"/>
<path d="M6 141.334C79.8333 209.334 268.3 304.534 431.5 141.334C594.7 -21.8665 778.167 73.3335 849.5 141.334" stroke="#FD9518" stroke-width="15"/>
<path d="M1693.5 141.334C1767.33 209.334 1955.8 304.534 2119 141.334C2282.2 -21.8665 2465.67 73.3335 2537 141.334" stroke="#FD9518" stroke-width="15"/>
<path d="M849.5 141.334C923.333 209.334 1111.8 304.534 1275 141.334C1438.2 -21.8665 1621.67 73.3335 1693 141.334" stroke="#FD9518" stroke-width="15"/>
<path d="M2537 141.334C2610.83 209.334 2799.3 304.534 2962.5 141.334C3125.7 -21.8665 3309.17 73.3335 3380.5 141.334" stroke="#FD9518" stroke-width="15"/>
<path d="M6 98.1111C79.8333 166.111 268.3 261.311 431.5 98.1111C594.7 -65.0889 778.167 30.1111 849.5 98.1111" stroke="black" stroke-width="15"/>
<path d="M1693.5 98.1111C1767.33 166.111 1955.8 261.311 2119 98.1111C2282.2 -65.0889 2465.67 30.1111 2537 98.1111" stroke="black" stroke-width="15"/>
<path d="M849.5 98.1111C923.333 166.111 1111.8 261.311 1275 98.1111C1438.2 -65.0889 1621.67 30.1111 1693 98.1111" stroke="black" stroke-width="15"/>
<path d="M2537 98.1111C2610.83 166.111 2799.3 261.311 2962.5 98.1111C3125.7 -65.0889 3309.17 30.1111 3380.5 98.1111" stroke="black" stroke-width="15"/>
<path d="M6 602.111C79.8333 534.111 268.3 438.911 431.5 602.111C594.7 765.311 778.167 670.111 849.5 602.111" stroke="#FD9518" stroke-width="15"/>
<path d="M1693.5 602.111C1767.33 534.111 1955.8 438.911 2119 602.111C2282.2 765.311 2465.67 670.111 2537 602.111" stroke="#FD9518" stroke-width="15"/>
<path d="M849.5 602.111C923.333 534.111 1111.8 438.911 1275 602.111C1438.2 765.311 1621.67 670.111 1693 602.111" stroke="#FD9518" stroke-width="15"/>
<path d="M2537 602.111C2610.83 534.111 2799.3 438.911 2962.5 602.111C3125.7 765.311 3309.17 670.111 3380.5 602.111" stroke="#FD9518" stroke-width="15"/>
<path d="M6 645.334C79.8333 577.334 268.3 482.134 431.5 645.334C594.7 808.534 778.167 713.334 849.5 645.334" stroke="black" stroke-width="15"/>
<path d="M1693.5 645.334C1767.33 577.334 1955.8 482.134 2119 645.334C2282.2 808.534 2465.67 713.334 2537 645.334" stroke="black" stroke-width="15"/>
<path d="M849.5 645.334C923.333 577.334 1111.8 482.134 1275 645.334C1438.2 808.534 1621.67 713.334 1693 645.334" stroke="black" stroke-width="15"/>
<path d="M2537 645.334C2610.83 577.334 2799.3 482.134 2962.5 645.334C3125.7 808.534 3309.17 713.334 3380.5 645.334" stroke="black" stroke-width="15"/>
<path d="M6 688.556C79.8333 620.556 268.3 525.356 431.5 688.556C594.7 851.756 778.167 756.556 849.5 688.556" stroke="black" stroke-width="15"/>
<path d="M1693.5 688.556C1767.33 620.556 1955.8 525.356 2119 688.556C2282.2 851.756 2465.67 756.556 2537 688.556" stroke="black" stroke-width="15"/>
<path d="M849.5 688.556C923.333 620.556 1111.8 525.356 1275 688.556C1438.2 851.756 1621.67 756.556 1693 688.556" stroke="black" stroke-width="15"/>
<path d="M2537 688.556C2610.83 620.556 2799.3 525.356 2962.5 688.556C3125.7 851.756 3309.17 756.556 3380.5 688.556" stroke="black" stroke-width="15"/>
</svg>
